<svg xmlns="http://www.w3.org/2000/svg" width="830" height="320" viewBox="0 0 830 320">
  <defs>
    <linearGradient id="purpleGrd" x1="0" y1="0" x2="1" y2="0">
      <stop offset="0%" stop-color="#7a3ce0"/><stop offset="50%" stop-color="#a75bff"/><stop offset="100%" stop-color="#7a3ce0"/>
    </linearGradient>
    <linearGradient id="cyanGrd" x1="0" y1="0" x2="1" y2="0">
      <stop offset="0%" stop-color="#1aa8d6"/><stop offset="50%" stop-color="#3fe0ff"/><stop offset="100%" stop-color="#1aa8d6"/>
    </linearGradient>
    <linearGradient id="letterGrd" x1="0" y1="0" x2="0" y2="1">
      <stop offset="0%" stop-color="#ffffff"/>
      <stop offset="100%" stop-color="#c7d9ff"/>
    </linearGradient>
    <!-- Gem-in-U treatment, ported from the title screen's current buildUPath()/
         gem rendering in src/draw.js: the old ring-portal U (this file's
         previous version) is what that code's own comments call "the old
         tunnel-ring portal", the game replaced it with a small faceted gem
         floating in the U's counter, same visual language as the real in-game
         coin pickups, recolored purple to cyan. This master now matches that,
         not the ring design. Pulse animation (gtime-driven in-game) is dropped
         since this is a still asset, values below are the mid-pulse state. -->
    <radialGradient id="gemAura" cx="50%" cy="50%" r="50%">
      <stop offset="0%"   stop-color="#aabeff" stop-opacity="0.40"/>
      <stop offset="40%"  stop-color="#786eff" stop-opacity="0.16"/>
      <stop offset="100%" stop-color="#5040dc" stop-opacity="0"/>
    </radialGradient>
    <linearGradient id="gemGrd" x1="0" y1="0" x2="0" y2="1">
      <stop offset="0%"   stop-color="#e5d4ff"/>
      <stop offset="45%"  stop-color="#a75bff"/>
      <stop offset="55%"  stop-color="#3fe0ff"/>
      <stop offset="100%" stop-color="#0d6a86"/>
    </linearGradient>
    <linearGradient id="ulGrd" x1="0" y1="0" x2="1" y2="0">
      <stop offset="0%"   stop-color="#5078ff" stop-opacity="0"/>
      <stop offset="30%"  stop-color="#78a5ff" stop-opacity="0.80"/>
      <stop offset="70%"  stop-color="#78a5ff" stop-opacity="0.80"/>
      <stop offset="100%" stop-color="#5078ff" stop-opacity="0"/>
    </linearGradient>
    <filter id="gemGlow" x="-150%" y="-150%" width="400%" height="400%"><feGaussianBlur stdDeviation="5"/></filter>
    <filter id="sparkGlow" x="-150%" y="-150%" width="400%" height="400%"><feGaussianBlur stdDeviation="1.4"/></filter>
    <filter id="letterGlow" x="-60%" y="-60%" width="220%" height="220%"><feGaussianBlur stdDeviation="9" result="b"/>
      <feMerge><feMergeNode in="b"/><feMergeNode in="SourceGraphic"/></feMerge>
    </filter>
    <clipPath id="uclip"><path d="M 190 -4 L 190 124 Q 190 200 270 200 Q 350 200 350 124 L 350 -4 L 350 -44 L 190 -44 Z"/></clipPath>
  </defs>
  <g transform="translate(60,60)">
    <g filter="url(#letterGlow)">
      <path d="M0,0 H140 V34 H87 V200 H53 V34 H0 Z" fill="url(#letterGrd)"/>
      <path d="M400,0 L434,0 L540,160.9 L540,200 L506,200 L400,39.099999999999994 Z M400,0 L434,0 L434,200 L400,200 Z M506,0 L540,0 L540,200 L506,200 Z" fill="url(#letterGrd)"/>
      <path d="M570,0 H604 V166 H710 V200 H570 Z" fill="url(#letterGrd)"/>
    </g>
    
  <g clip-path="url(#uclip)">
    <circle cx="270" cy="102" r="108" fill="url(#gemAura)"/>
    <!-- 8-ray sparkle burst: 4 long cardinal rays + 4 short diagonal rays,
         same construction as the in-game coin/gem rays, static instead of
         spinning since this is a still asset. -->
    <g transform="translate(270,102)" filter="url(#sparkGlow)">
      <path d="M 0,-40.5 L 0,-75 M 40.5,0 L 75,0 M 0,40.5 L 0,75 M -40.5,0 L -75,0"
            fill="none" stroke="#becdff" stroke-width="4.4" stroke-linecap="round" opacity="0.85"/>
      <path d="M 28.6,-28.6 L 36,-36 M 28.6,28.6 L 36,36 M -28.6,28.6 L -36,36 M -28.6,-28.6 L -36,-36"
            fill="none" stroke="#becdff" stroke-width="2.6" stroke-linecap="round" opacity="0.40"/>
    </g>
    <g transform="translate(270,102)">
      <!-- Faceted gem: purple top-half fading to cyan bottom-half, same split
           the old rings used, so the swap still reads as the same mark. Blurred
           duplicate behind the crisp fill for the glow (icon-mark's coin uses
           the same trick - filtering the crisp shape directly blurs the facets
           away instead of just adding a halo). -->
      <path d="M 0,-40.5 L 27,0 L 0,40.5 L -27,0 Z" fill="url(#gemGrd)" opacity="0.6" filter="url(#gemGlow)"/>
      <path d="M 0,-40.5 L 27,0 L 0,40.5 L -27,0 Z" fill="url(#gemGrd)"/>
      <path d="M 0,-40.5 L 27,0 L 0,0 Z" fill="#ffffff" opacity="0.35"/>
      <circle cx="0" cy="0" r="6.6" fill="#ffffff"/>
    </g>
  </g>
  <!-- Top ends land exactly on T/N/L's cap height (y=0) with a butt cap, not
       round: a round cap adds a lineWidth/2 bump past the path's own endpoint,
       which pushed the U visibly above the other three letters. -->
  <path d="M 190 0 L 190 124 Q 190 200 270 200 Q 350 200 350 124 L 350 0" fill="none" stroke="url(#letterGrd)" stroke-width="34" stroke-linecap="butt" stroke-linejoin="round" filter="url(#letterGlow)"/>

  <!-- Accent underline beneath the wordmark, matching the title screen's
       fade-in/fade-out gradient bar under TUNL. -->
  <rect x="-10" y="212" width="730" height="4" fill="url(#ulGrd)"/>
  </g>
</svg>
